<svg xmlns="http://www.w3.org/2000/svg" viewBox="0 0 180 180" role="img" aria-label="SecuriPDF icon">
  <defs>
    <linearGradient id="docGradient" x1="24" y1="18" x2="144" y2="154" gradientUnits="userSpaceOnUse">
      <stop offset="0" stop-color="#2563EB"/>
      <stop offset="1" stop-color="#1E40AF"/>
    </linearGradient>
    <linearGradient id="shieldGradient" x1="52" y1="58" x2="132" y2="150" gradientUnits="userSpaceOnUse">
      <stop offset="0" stop-color="#0F172A"/>
      <stop offset="1" stop-color="#1D4ED8"/>
    </linearGradient>
  </defs>
  <path d="M36 14h82l34 34v102c0 9-7 16-16 16H36c-9 0-16-7-16-16V30c0-9 7-16 16-16z" fill="url(#docGradient)"/>
  <path d="M118 14v30c0 5 4 9 9 9h25L118 14z" fill="#DBEAFE" opacity="0.92"/>
  <path d="M118 14v30c0 5 4 9 9 9h25" fill="none" stroke="#1E3A8A" stroke-width="3" opacity="0.45"/>
  <g transform="translate(42 55)">
    <path d="M48 0l44 13v34c0 31-18 55-44 68C22 102 4 78 4 47V13L48 0z" fill="url(#shieldGradient)" stroke="#E0F2FE" stroke-width="5"/>
    <path d="M48 13l31 9v25c0 22-12 39-31 50C29 86 17 69 17 47V22l31-9z" fill="none" stroke="#60A5FA" stroke-width="4" opacity="0.95"/>
    <text x="48" y="67" text-anchor="middle" font-family="Inter, Segoe UI, Arial, sans-serif" font-size="52" font-weight="800" fill="#FFFFFF">S</text>
  </g>
</svg>
